<svg width="839" height="734" viewBox="0 0 839 734" fill="none" xmlns="http://www.w3.org/2000/svg">
<path d="M300.314 156.2C286.781 156.2 274.914 152.9 264.714 146.3C254.514 139.633 246.547 130.5 240.814 118.9C235.147 107.3 232.314 94.0667 232.314 79.2C232.314 64.3333 235.147 51.1 240.814 39.5C246.547 27.9 254.514 18.8 264.714 12.2C274.914 5.53331 286.781 2.19998 300.314 2.19998C307.047 2.19998 313.381 3.39999 319.314 5.79999C325.314 8.19999 330.481 11.5333 334.814 15.8L346.914 4.19998H347.314V45.2H346.914C346.914 37.0667 344.781 29.8333 340.514 23.5C336.247 17.1666 330.714 12.2 323.914 8.59998C317.114 4.99997 309.914 3.19998 302.314 3.19998C293.647 3.19998 286.281 5.43331 280.214 9.89998C274.214 14.3 269.381 20.2 265.714 27.6C262.114 34.9333 259.481 43.1 257.814 52.1C256.147 61.0333 255.314 70.0667 255.314 79.2C255.314 88.2667 256.147 97.3 257.814 106.3C259.481 115.3 262.114 123.5 265.714 130.9C269.381 138.233 274.214 144.133 280.214 148.6C286.281 153 293.647 155.2 302.314 155.2C309.247 155.2 315.547 154.1 321.214 151.9C326.947 149.633 331.881 146.533 336.014 142.6C340.147 138.667 343.314 134.2 345.514 129.2C347.781 124.133 348.914 118.8 348.914 113.2H349.314V154.2H348.914L337.814 141.7C333.481 146.167 328.081 149.7 321.614 152.3C315.214 154.9 308.114 156.2 300.314 156.2Z" fill="#EDEDE5"/>
<path d="M428.194 154.4C418.06 154.4 409.027 152.433 401.094 148.5C393.16 144.5 386.427 138.967 380.894 131.9C375.427 124.834 371.26 116.667 368.394 107.4C365.527 98.0668 364.094 88.0668 364.094 77.4002C364.094 66.7335 365.594 56.7668 368.594 47.5002C371.66 38.1668 375.994 29.9668 381.594 22.9001C387.26 15.8335 394.027 10.3335 401.894 6.40015C409.76 2.40014 418.527 0.400146 428.194 0.400146C437.86 0.400146 446.594 2.40014 454.394 6.40015C462.26 10.3335 468.994 15.8335 474.594 22.9001C480.261 29.9668 484.594 38.1668 487.594 47.5002C490.594 56.7668 492.094 66.7335 492.094 77.4002C492.094 88.0668 490.661 98.0668 487.794 107.4C484.994 116.667 480.86 124.834 475.394 131.9C469.927 138.967 463.227 144.5 455.294 148.5C447.36 152.433 438.327 154.4 428.194 154.4ZM428.194 154C436.927 154 443.96 151.767 449.294 147.3C454.694 142.767 458.827 136.8 461.694 129.4C464.56 121.934 466.494 113.667 467.494 104.6C468.56 95.5335 469.094 86.4335 469.094 77.3002C469.094 68.2335 468.494 59.2002 467.294 50.2001C466.094 41.1335 463.96 32.9001 460.894 25.5002C457.894 18.0335 453.727 12.0668 448.394 7.60014C443.127 3.06681 436.394 0.800156 428.194 0.800156C419.994 0.800156 413.227 3.06681 407.894 7.60014C402.56 12.0668 398.36 18.0335 395.294 25.5002C392.294 32.9001 390.16 41.1335 388.894 50.2001C387.694 59.2002 387.094 68.2335 387.094 77.3002C387.094 86.4335 387.627 95.5335 388.694 104.6C389.76 113.667 391.727 121.934 394.594 129.4C397.46 136.8 401.594 142.767 406.994 147.3C412.461 151.767 419.527 154 428.194 154Z" fill="#EDEDE5"/>
<path d="M624.094 2.19995V2.59996H604.294V106.2C604.294 122.667 600.861 134.967 593.994 143.1C587.127 151.167 575.794 155.2 559.994 155.2C542.727 155.2 530.061 151.367 521.994 143.7C513.994 135.967 509.994 123.467 509.994 106.2V2.59996H492.094V2.19995H549.094V2.59996H529.094V104.2C529.094 110.8 529.561 117.1 530.494 123.1C531.494 129.1 533.227 134.433 535.694 139.1C538.227 143.767 541.761 147.467 546.294 150.2C550.894 152.867 556.794 154.2 563.994 154.2C572.927 154.2 580.327 152.467 586.194 149C592.127 145.467 596.561 140.167 599.494 133.1C602.427 125.967 603.894 117 603.894 106.2V2.59996H584.994V2.19995H624.094Z" fill="#EDEDE5"/>
<path d="M568.563 255.4C568.563 250.933 567.563 247.067 565.563 243.8C563.563 240.533 560.896 238.033 557.563 236.3C554.296 234.5 550.763 233.6 546.963 233.6H534.963V233.2H546.963C550.763 233.2 554.296 232.4 557.563 230.8C560.896 229.2 563.563 226.867 565.563 223.8C567.563 220.667 568.563 216.867 568.563 212.4H568.963V255.4H568.563Z" fill="#EDEDE5"/>
<path d="M418.594 310.6V161.4H398.494C392.627 161.4 387.794 162.533 383.994 164.8C380.194 167 377.194 170.133 374.994 174.2C372.794 178.2 371.227 182.933 370.294 188.4C369.427 193.8 368.994 199.667 368.994 206H368.594V161H487.594V206H487.094C487.094 199.667 486.627 193.8 485.694 188.4C484.827 182.933 483.294 178.2 481.094 174.2C478.894 170.133 475.86 167 471.994 164.8C468.194 162.533 463.36 161.4 457.494 161.4H437.594L438.998 310.6L478.998 312.5V314H376.998V312.5L418.594 310.6Z" fill="#EDEDE5"/>
<path fill-rule="evenodd" clip-rule="evenodd" d="M334.314 166.1C326.647 162.7 316.781 161 304.714 161H245.814V161.4H263.714C280.826 582.26 19.9832 630.859 0 642.42V733.5H839V642.42C839 642.42 609.722 575.236 604.449 432.5V270.369C604.093 277.103 602.897 283.246 600.863 288.8C598.396 295.533 594.396 300.867 588.863 304.8C583.396 308.667 576.096 310.6 566.963 310.6H534.963V233.6V233.2V161.4H568.963C576.763 161.4 583.129 163.3 588.063 167.1C593.063 170.9 596.729 175.9 599.063 182.1C601.396 188.233 602.563 194.867 602.563 202H602.863V161H497.963V161.4H515.863L512.5 310.6H498.389C498.36 311.18 498.24 312.222 497.963 314C497.963 349 502.788 626 395.294 626C287.8 626 284.896 409.196 282.814 243.2H304.714C316.781 243.2 326.647 241.667 334.314 238.6C341.981 235.467 347.647 230.933 351.314 225C354.981 219 356.814 211.667 356.814 203C356.814 194.333 354.981 186.867 351.314 180.6C347.647 174.333 341.981 169.5 334.314 166.1ZM304.714 242.8H282.814V161.4H304.714C309.514 161.4 313.781 162.7 317.514 165.3C321.247 167.9 324.381 171.3 326.914 175.5C329.447 179.7 331.381 184.233 332.714 189.1C334.048 193.9 334.714 198.533 334.714 203C334.714 207.467 334.048 212.033 332.714 216.7C331.381 221.3 329.447 225.6 326.914 229.6C324.381 233.533 321.247 236.733 317.514 239.2C313.781 241.6 309.514 242.8 304.714 242.8Z" fill="#EDEDE5"/>
</svg>
