<svg width="704" height="643" viewBox="0 0 704 643" fill="none" xmlns="http://www.w3.org/2000/svg">
<path d="M237.314 156.2C223.781 156.2 211.914 152.9 201.714 146.3C191.514 139.633 183.547 130.5 177.814 118.9C172.147 107.3 169.314 94.0667 169.314 79.2C169.314 64.3333 172.147 51.1 177.814 39.5C183.547 27.9 191.514 18.8 201.714 12.2C211.914 5.53331 223.781 2.19998 237.314 2.19998C244.047 2.19998 250.381 3.39999 256.314 5.79999C262.314 8.19999 267.481 11.5333 271.814 15.8L283.914 4.19998H284.314V45.2H283.914C283.914 37.0667 281.781 29.8333 277.514 23.5C273.247 17.1666 267.714 12.2 260.914 8.59998C254.114 4.99997 246.914 3.19998 239.314 3.19998C230.647 3.19998 223.281 5.43331 217.214 9.89998C211.214 14.3 206.381 20.2 202.714 27.6C199.114 34.9333 196.481 43.1 194.814 52.1C193.147 61.0333 192.314 70.0667 192.314 79.2C192.314 88.2667 193.147 97.3 194.814 106.3C196.481 115.3 199.114 123.5 202.714 130.9C206.381 138.233 211.214 144.133 217.214 148.6C223.281 153 230.647 155.2 239.314 155.2C246.247 155.2 252.547 154.1 258.214 151.9C263.947 149.633 268.881 146.533 273.014 142.6C277.147 138.667 280.314 134.2 282.514 129.2C284.781 124.133 285.914 118.8 285.914 113.2H286.314V154.2H285.914L274.814 141.7C270.481 146.167 265.081 149.7 258.614 152.3C252.214 154.9 245.114 156.2 237.314 156.2Z" fill="#EDEDE5"/>
<path d="M365.194 154.4C355.06 154.4 346.027 152.433 338.094 148.5C330.16 144.5 323.427 138.967 317.894 131.9C312.427 124.834 308.26 116.667 305.394 107.4C302.527 98.0668 301.094 88.0668 301.094 77.4002C301.094 66.7335 302.594 56.7668 305.594 47.5002C308.66 38.1668 312.994 29.9668 318.594 22.9001C324.26 15.8335 331.027 10.3335 338.894 6.40015C346.76 2.40014 355.527 0.400146 365.194 0.400146C374.86 0.400146 383.594 2.40014 391.394 6.40015C399.26 10.3335 405.994 15.8335 411.594 22.9001C417.261 29.9668 421.594 38.1668 424.594 47.5002C427.594 56.7668 429.094 66.7335 429.094 77.4002C429.094 88.0668 427.661 98.0668 424.794 107.4C421.994 116.667 417.86 124.834 412.394 131.9C406.927 138.967 400.227 144.5 392.294 148.5C384.36 152.433 375.327 154.4 365.194 154.4ZM365.194 154C373.927 154 380.96 151.767 386.294 147.3C391.694 142.767 395.827 136.8 398.694 129.4C401.56 121.934 403.494 113.667 404.494 104.6C405.56 95.5335 406.094 86.4335 406.094 77.3002C406.094 68.2335 405.494 59.2002 404.294 50.2001C403.094 41.1335 400.96 32.9001 397.894 25.5002C394.894 18.0335 390.727 12.0668 385.394 7.60014C380.127 3.06681 373.394 0.800156 365.194 0.800156C356.994 0.800156 350.227 3.06681 344.894 7.60014C339.56 12.0668 335.36 18.0335 332.294 25.5002C329.294 32.9001 327.16 41.1335 325.894 50.2001C324.694 59.2002 324.094 68.2335 324.094 77.3002C324.094 86.4335 324.627 95.5335 325.694 104.6C326.76 113.667 328.727 121.934 331.594 129.4C334.46 136.8 338.594 142.767 343.994 147.3C349.461 151.767 356.527 154 365.194 154Z" fill="#EDEDE5"/>
<path d="M561.094 2.19995V2.59996H541.294V106.2C541.294 122.667 537.861 134.967 530.994 143.1C524.127 151.167 512.794 155.2 496.994 155.2C479.727 155.2 467.061 151.367 458.994 143.7C450.994 135.967 446.994 123.467 446.994 106.2V2.59996H429.094V2.19995H486.094V2.59996H466.094V104.2C466.094 110.8 466.561 117.1 467.494 123.1C468.494 129.1 470.227 134.433 472.694 139.1C475.227 143.767 478.761 147.467 483.294 150.2C487.894 152.867 493.794 154.2 500.994 154.2C509.927 154.2 517.327 152.467 523.194 149C529.127 145.467 533.561 140.167 536.494 133.1C539.427 125.967 540.894 117 540.894 106.2V2.59996H521.994V2.19995H561.094Z" fill="#EDEDE5"/>
<path d="M505.563 255.4C505.563 250.933 504.563 247.067 502.563 243.8C500.563 240.533 497.896 238.033 494.563 236.3C491.296 234.5 487.763 233.6 483.963 233.6H471.963H463.963V233.2H471.963H483.963C487.763 233.2 491.296 232.4 494.563 230.8C497.896 229.2 500.563 226.867 502.563 223.8C504.563 220.667 505.563 216.867 505.563 212.4H505.963V255.4H505.563Z" fill="#EDEDE5"/>
<path d="M355.594 310.6V161.4H335.494C329.627 161.4 324.794 162.533 320.994 164.8C317.194 167 314.194 170.133 311.994 174.2C309.794 178.2 308.227 182.933 307.294 188.4C306.427 193.8 305.994 199.667 305.994 206H305.594V161H424.594V206H424.094C424.094 199.667 423.627 193.8 422.694 188.4C421.827 182.933 420.294 178.2 418.094 174.2C415.894 170.133 412.86 167 408.994 164.8C405.194 162.533 400.36 161.4 394.494 161.4H374.594L375.998 310.6L415.998 312.5V314H313.998V312.5L355.594 310.6Z" fill="#EDEDE5"/>
<path fill-rule="evenodd" clip-rule="evenodd" d="M271.314 166.1C263.647 162.7 253.781 161 241.714 161H182.814V161.4H200.714C210.4 455.162 211.414 614.542 0.5 642.5L703.791 642.42C569.38 634.669 546.722 575.236 541.449 432.5V270.369C541.093 277.103 539.897 283.246 537.863 288.8C535.396 295.533 531.396 300.867 525.863 304.8C520.396 308.667 513.096 310.6 503.963 310.6H471.963V233.6H463.963V233.2H471.963V161.4H505.963C513.763 161.4 520.129 163.3 525.063 167.1C530.063 170.9 533.729 175.9 536.063 182.1C538.396 188.233 539.563 194.867 539.563 202H539.863V161H434.963V161.4H452.863L449.5 310.6H434.963C525.863 365 494.563 580 369 600.5C243.437 621 221.896 409.196 219.814 243.2H241.714C253.781 243.2 263.647 241.667 271.314 238.6C278.981 235.467 284.647 230.933 288.314 225C291.981 219 293.814 211.667 293.814 203C293.814 194.333 291.981 186.867 288.314 180.6C284.647 174.333 278.981 169.5 271.314 166.1ZM241.714 242.8H219.814V161.4H241.714C246.514 161.4 250.781 162.7 254.514 165.3C258.247 167.9 261.381 171.3 263.914 175.5C266.447 179.7 268.381 184.233 269.714 189.1C271.048 193.9 271.714 198.533 271.714 203C271.714 207.467 271.048 212.033 269.714 216.7C268.381 221.3 266.447 225.6 263.914 229.6C261.381 233.533 258.247 236.733 254.514 239.2C250.781 241.6 246.514 242.8 241.714 242.8Z" fill="#EDEDE5"/>
</svg>
