<svg width="575" height="495" viewBox="0 0 575 495" fill="none" xmlns="http://www.w3.org/2000/svg">
<path d="M176.314 156.2C162.781 156.2 150.914 152.9 140.714 146.3C130.514 139.633 122.547 130.5 116.814 118.9C111.147 107.3 108.314 94.0667 108.314 79.2C108.314 64.3333 111.147 51.1 116.814 39.5C122.547 27.9 130.514 18.8 140.714 12.2C150.914 5.53331 162.781 2.19998 176.314 2.19998C183.047 2.19998 189.381 3.39999 195.314 5.79999C201.314 8.19999 206.481 11.5333 210.814 15.8L222.914 4.19998H223.314V45.2H222.914C222.914 37.0667 220.781 29.8333 216.514 23.5C212.247 17.1666 206.714 12.2 199.914 8.59998C193.114 4.99997 185.914 3.19998 178.314 3.19998C169.647 3.19998 162.281 5.43331 156.214 9.89998C150.214 14.3 145.381 20.2 141.714 27.6C138.114 34.9333 135.481 43.1 133.814 52.1C132.147 61.0333 131.314 70.0667 131.314 79.2C131.314 88.2667 132.147 97.3 133.814 106.3C135.481 115.3 138.114 123.5 141.714 130.9C145.381 138.233 150.214 144.133 156.214 148.6C162.281 153 169.647 155.2 178.314 155.2C185.247 155.2 191.547 154.1 197.214 151.9C202.947 149.633 207.881 146.533 212.014 142.6C216.147 138.667 219.314 134.2 221.514 129.2C223.781 124.133 224.914 118.8 224.914 113.2H225.314V154.2H224.914L213.814 141.7C209.481 146.167 204.081 149.7 197.614 152.3C191.214 154.9 184.114 156.2 176.314 156.2Z" fill="#EDEDE5"/>
<path d="M304.194 154.4C294.06 154.4 285.027 152.433 277.094 148.5C269.16 144.5 262.427 138.967 256.894 131.9C251.427 124.834 247.26 116.667 244.394 107.4C241.527 98.0668 240.094 88.0668 240.094 77.4002C240.094 66.7335 241.594 56.7668 244.594 47.5002C247.66 38.1668 251.994 29.9668 257.594 22.9001C263.26 15.8335 270.027 10.3335 277.894 6.40015C285.76 2.40014 294.527 0.400146 304.194 0.400146C313.86 0.400146 322.594 2.40014 330.394 6.40015C338.26 10.3335 344.994 15.8335 350.594 22.9001C356.261 29.9668 360.594 38.1668 363.594 47.5002C366.594 56.7668 368.094 66.7335 368.094 77.4002C368.094 88.0668 366.661 98.0668 363.794 107.4C360.994 116.667 356.86 124.834 351.394 131.9C345.927 138.967 339.227 144.5 331.294 148.5C323.36 152.433 314.327 154.4 304.194 154.4ZM304.194 154C312.927 154 319.96 151.767 325.294 147.3C330.694 142.767 334.827 136.8 337.694 129.4C340.56 121.934 342.494 113.667 343.494 104.6C344.56 95.5335 345.094 86.4335 345.094 77.3002C345.094 68.2335 344.494 59.2002 343.294 50.2001C342.094 41.1335 339.96 32.9001 336.894 25.5002C333.894 18.0335 329.727 12.0668 324.394 7.60014C319.127 3.06681 312.394 0.800156 304.194 0.800156C295.994 0.800156 289.227 3.06681 283.894 7.60014C278.56 12.0668 274.36 18.0335 271.294 25.5002C268.294 32.9001 266.16 41.1335 264.894 50.2001C263.694 59.2002 263.094 68.2335 263.094 77.3002C263.094 86.4335 263.627 95.5335 264.694 104.6C265.76 113.667 267.727 121.934 270.594 129.4C273.46 136.8 277.594 142.767 282.994 147.3C288.461 151.767 295.527 154 304.194 154Z" fill="#EDEDE5"/>
<path d="M500.094 2.19995V2.59996H480.294V106.2C480.294 122.667 476.861 134.967 469.994 143.1C463.127 151.167 451.794 155.2 435.994 155.2C418.727 155.2 406.061 151.367 397.994 143.7C389.994 135.967 385.994 123.467 385.994 106.2V2.59996H368.094V2.19995H425.094V2.59996H405.094V104.2C405.094 110.8 405.561 117.1 406.494 123.1C407.494 129.1 409.227 134.433 411.694 139.1C414.227 143.767 417.761 147.467 422.294 150.2C426.894 152.867 432.794 154.2 439.994 154.2C448.927 154.2 456.327 152.467 462.194 149C468.127 145.467 472.561 140.167 475.494 133.1C478.427 125.967 479.894 117 479.894 106.2V2.59996H460.994V2.19995H500.094Z" fill="#EDEDE5"/>
<path d="M316.595 495C355.056 491.087 382.18 443.815 373.963 310.6H388.5L391.863 161.4H373.963V161H478.863V202H478.563C478.563 194.867 477.396 188.233 475.063 182.1C472.729 175.9 469.063 170.9 464.063 167.1C459.129 163.3 452.763 161.4 444.963 161.4H410.963V310.6H442.963C452.096 310.6 459.396 308.667 464.863 304.8C470.396 300.867 474.396 295.533 476.863 288.8C479.329 282.067 480.563 274.467 480.563 266H480.963C484.792 394.735 468.674 488.865 574.5 495H316.595ZM444.563 255.4C444.563 250.933 443.563 247.067 441.563 243.8C439.563 240.533 436.896 238.033 433.563 236.3C430.296 234.5 426.763 233.6 422.963 233.6H402.963V233.2H422.963C426.763 233.2 430.296 232.4 433.563 230.8C436.896 229.2 439.563 226.867 441.563 223.8C443.563 220.667 444.563 216.867 444.563 212.4H444.963V255.4H444.563Z" fill="#EDEDE5"/>
<path fill-rule="evenodd" clip-rule="evenodd" d="M180.714 161C192.781 161 202.647 162.7 210.314 166.1C217.981 169.5 223.647 174.333 227.314 180.6C230.981 186.867 232.814 194.333 232.814 203C232.814 211.667 230.981 219 227.314 225C223.647 230.933 217.981 235.467 210.314 238.6C202.647 241.667 192.781 243.2 180.714 243.2H158.814C161.483 374.385 166.626 445.611 297.595 495H0.5C130.932 460.542 152.466 379.959 139.714 161.4H121.814V161H180.714ZM180.714 242.8H158.814V161.4H180.714C185.514 161.4 189.781 162.7 193.514 165.3C197.247 167.9 200.381 171.3 202.914 175.5C205.447 179.7 207.381 184.233 208.714 189.1C210.048 193.9 210.714 198.533 210.714 203C210.714 207.467 210.048 212.033 208.714 216.7C207.381 221.3 205.447 225.6 202.914 229.6C200.381 233.533 197.247 236.733 193.514 239.2C189.781 241.6 185.514 242.8 180.714 242.8Z" fill="#EDEDE5"/>
<path d="M297.595 495V161.4H277.495C271.629 161.4 266.795 162.533 262.995 164.8C259.195 167 256.195 170.133 253.995 174.2C251.795 178.2 250.229 182.933 249.295 188.4C248.429 193.8 247.995 199.667 247.995 206H247.595V161H366.595V206H366.095C366.095 199.667 365.629 193.8 364.695 188.4C363.829 182.933 362.295 178.2 360.095 174.2C357.895 170.133 354.862 167 350.995 164.8C347.195 162.533 342.362 161.4 336.495 161.4H316.595V495H297.595Z" fill="#EDEDE5"/>
</svg>
