<svg width="708" height="495" viewBox="0 0 708 495" fill="none" xmlns="http://www.w3.org/2000/svg">
<path d="M235.314 156.2C221.781 156.2 209.914 152.9 199.714 146.3C189.514 139.633 181.547 130.5 175.814 118.9C170.147 107.3 167.314 94.0667 167.314 79.2C167.314 64.3333 170.147 51.1 175.814 39.5C181.547 27.9 189.514 18.8 199.714 12.2C209.914 5.53331 221.781 2.19998 235.314 2.19998C242.047 2.19998 248.381 3.39999 254.314 5.79999C260.314 8.19999 265.481 11.5333 269.814 15.8L281.914 4.19998H282.314V45.2H281.914C281.914 37.0667 279.781 29.8333 275.514 23.5C271.247 17.1666 265.714 12.2 258.914 8.59998C252.114 4.99997 244.914 3.19998 237.314 3.19998C228.647 3.19998 221.281 5.43331 215.214 9.89998C209.214 14.3 204.381 20.2 200.714 27.6C197.114 34.9333 194.481 43.1 192.814 52.1C191.147 61.0333 190.314 70.0667 190.314 79.2C190.314 88.2667 191.147 97.3 192.814 106.3C194.481 115.3 197.114 123.5 200.714 130.9C204.381 138.233 209.214 144.133 215.214 148.6C221.281 153 228.647 155.2 237.314 155.2C244.247 155.2 250.547 154.1 256.214 151.9C261.947 149.633 266.881 146.533 271.014 142.6C275.147 138.667 278.314 134.2 280.514 129.2C282.781 124.133 283.914 118.8 283.914 113.2H284.314V154.2H283.914L272.814 141.7C268.481 146.167 263.081 149.7 256.614 152.3C250.214 154.9 243.114 156.2 235.314 156.2Z" fill="#EDEDE5"/>
<path d="M363.194 154.4C353.06 154.4 344.027 152.433 336.094 148.5C328.16 144.5 321.427 138.967 315.894 131.9C310.427 124.834 306.26 116.667 303.394 107.4C300.527 98.0668 299.094 88.0668 299.094 77.4002C299.094 66.7335 300.594 56.7668 303.594 47.5002C306.66 38.1668 310.994 29.9668 316.594 22.9001C322.26 15.8335 329.027 10.3335 336.894 6.40015C344.76 2.40014 353.527 0.400146 363.194 0.400146C372.86 0.400146 381.594 2.40014 389.394 6.40015C397.26 10.3335 403.994 15.8335 409.594 22.9001C415.261 29.9668 419.594 38.1668 422.594 47.5002C425.594 56.7668 427.094 66.7335 427.094 77.4002C427.094 88.0668 425.661 98.0668 422.794 107.4C419.994 116.667 415.86 124.834 410.394 131.9C404.927 138.967 398.227 144.5 390.294 148.5C382.36 152.433 373.327 154.4 363.194 154.4ZM363.194 154C371.927 154 378.96 151.767 384.294 147.3C389.694 142.767 393.827 136.8 396.694 129.4C399.56 121.934 401.494 113.667 402.494 104.6C403.56 95.5335 404.094 86.4335 404.094 77.3002C404.094 68.2335 403.494 59.2002 402.294 50.2001C401.094 41.1335 398.96 32.9001 395.894 25.5002C392.894 18.0335 388.727 12.0668 383.394 7.60014C378.127 3.06681 371.394 0.800156 363.194 0.800156C354.994 0.800156 348.227 3.06681 342.894 7.60014C337.56 12.0668 333.36 18.0335 330.294 25.5002C327.294 32.9001 325.16 41.1335 323.894 50.2001C322.694 59.2002 322.094 68.2335 322.094 77.3002C322.094 86.4335 322.627 95.5335 323.694 104.6C324.76 113.667 326.727 121.934 329.594 129.4C332.46 136.8 336.594 142.767 341.994 147.3C347.461 151.767 354.527 154 363.194 154Z" fill="#EDEDE5"/>
<path d="M559.094 2.19995V2.59996H539.294V106.2C539.294 122.667 535.861 134.967 528.994 143.1C522.127 151.167 510.794 155.2 494.994 155.2C477.727 155.2 465.061 151.367 456.994 143.7C448.994 135.967 444.994 123.467 444.994 106.2V2.59996H427.094V2.19995H484.094V2.59996H464.094V104.2C464.094 110.8 464.561 117.1 465.494 123.1C466.494 129.1 468.227 134.433 470.694 139.1C473.227 143.767 476.761 147.467 481.294 150.2C485.894 152.867 491.794 154.2 498.994 154.2C507.927 154.2 515.327 152.467 521.194 149C527.127 145.467 531.561 140.167 534.494 133.1C537.427 125.967 538.894 117 538.894 106.2V2.59996H519.994V2.19995H559.094Z" fill="#EDEDE5"/>
<path d="M363.5 495C438.143 495.137 468.165 440.069 432.963 310.6H447.5L450.863 161.4H432.963V161H537.863V202H537.563C537.563 194.867 536.396 188.233 534.063 182.1C531.729 175.9 528.063 170.9 523.063 167.1C518.129 163.3 511.763 161.4 503.963 161.4H469.963V310.6H501.963C511.096 310.6 518.396 308.667 523.863 304.8C529.396 300.867 533.396 295.533 535.863 288.8C538.329 282.067 539.563 274.467 539.563 266H539.963C543.792 394.735 601.674 488.865 707.5 495H363.5ZM503.563 255.4C503.563 250.933 502.563 247.067 500.563 243.8C498.563 240.533 495.896 238.033 492.563 236.3C489.296 234.5 485.763 233.6 481.963 233.6H461.963V233.2H481.963C485.763 233.2 489.296 232.4 492.563 230.8C495.896 229.2 498.563 226.867 500.563 223.8C502.563 220.667 503.563 216.867 503.563 212.4H503.963V255.4H503.563Z" fill="#EDEDE5"/>
<path fill-rule="evenodd" clip-rule="evenodd" d="M239.714 161C251.781 161 261.647 162.7 269.314 166.1C276.981 169.5 282.647 174.333 286.314 180.6C289.981 186.867 291.814 194.333 291.814 203C291.814 211.667 289.981 219 286.314 225C282.647 230.933 276.981 235.467 269.314 238.6C261.647 241.667 251.781 243.2 239.714 243.2H217.814C219.896 409.196 228.32 493.309 363.5 495H0.5C133.884 491.487 214.477 385.197 198.714 161.4H180.814V161H239.714ZM239.714 242.8H217.814V161.4H239.714C244.514 161.4 248.781 162.7 252.514 165.3C256.247 167.9 259.381 171.3 261.914 175.5C264.447 179.7 266.381 184.233 267.714 189.1C269.048 193.9 269.714 198.533 269.714 203C269.714 207.467 269.048 212.033 267.714 216.7C266.381 221.3 264.447 225.6 261.914 229.6C259.381 233.533 256.247 236.733 252.514 239.2C248.781 241.6 244.514 242.8 239.714 242.8Z" fill="#EDEDE5"/>
<path d="M353.594 310.6V161.4H333.494C327.627 161.4 322.794 162.533 318.994 164.8C315.194 167 312.194 170.133 309.994 174.2C307.794 178.2 306.227 182.933 305.294 188.4C304.427 193.8 303.994 199.667 303.994 206H303.594V161H422.594V206H422.094C422.094 199.667 421.627 193.8 420.694 188.4C419.827 182.933 418.294 178.2 416.094 174.2C413.894 170.133 410.86 167 406.994 164.8C403.194 162.533 398.36 161.4 392.494 161.4H372.594L373.998 310.6H413.998V314H311.998V310.6H353.594Z" fill="#EDEDE5"/>
</svg>
