<svg width="393" height="643" viewBox="0 0 393 643" fill="none" xmlns="http://www.w3.org/2000/svg">
<path d="M68.314 156.2C54.7806 156.2 42.914 152.9 32.714 146.3C22.514 139.633 14.5473 130.5 8.81396 118.9C3.1473 107.3 0.313965 94.0667 0.313965 79.2C0.313965 64.3333 3.1473 51.1 8.81396 39.5C14.5473 27.9 22.514 18.8 32.714 12.2C42.914 5.53331 54.7806 2.19998 68.314 2.19998C75.0473 2.19998 81.3806 3.39999 87.314 5.79999C93.314 8.19999 98.4806 11.5333 102.814 15.8L114.914 4.19998H115.314V45.2H114.914C114.914 37.0667 112.781 29.8333 108.514 23.5C104.247 17.1666 98.714 12.2 91.914 8.59998C85.114 4.99997 77.914 3.19998 70.314 3.19998C61.6473 3.19998 54.2806 5.43331 48.214 9.89998C42.214 14.3 37.3806 20.2 33.714 27.6C30.114 34.9333 27.4806 43.1 25.814 52.1C24.1473 61.0333 23.314 70.0667 23.314 79.2C23.314 88.2667 24.1473 97.3 25.814 106.3C27.4806 115.3 30.114 123.5 33.714 130.9C37.3806 138.233 42.214 144.133 48.214 148.6C54.2806 153 61.6473 155.2 70.314 155.2C77.2473 155.2 83.5473 154.1 89.214 151.9C94.9473 149.633 99.8806 146.533 104.014 142.6C108.147 138.667 111.314 134.2 113.514 129.2C115.781 124.133 116.914 118.8 116.914 113.2H117.314V154.2H116.914L105.814 141.7C101.481 146.167 96.0806 149.7 89.614 152.3C83.214 154.9 76.114 156.2 68.314 156.2Z" fill="#EDEDE5"/>
<path d="M196.194 154.4C186.06 154.4 177.027 152.433 169.094 148.5C161.16 144.5 154.427 138.967 148.894 131.9C143.427 124.834 139.26 116.667 136.394 107.4C133.527 98.0668 132.094 88.0668 132.094 77.4002C132.094 66.7335 133.594 56.7668 136.594 47.5002C139.66 38.1668 143.994 29.9668 149.594 22.9001C155.26 15.8335 162.027 10.3335 169.894 6.40015C177.76 2.40014 186.527 0.400146 196.194 0.400146C205.86 0.400146 214.594 2.40014 222.394 6.40015C230.26 10.3335 236.994 15.8335 242.594 22.9001C248.26 29.9668 252.594 38.1668 255.594 47.5002C258.594 56.7668 260.094 66.7335 260.094 77.4002C260.094 88.0668 258.661 98.0668 255.794 107.4C252.994 116.667 248.861 124.834 243.394 131.9C237.927 138.967 231.227 144.5 223.294 148.5C215.36 152.433 206.327 154.4 196.194 154.4ZM196.194 154C204.927 154 211.96 151.767 217.294 147.3C222.694 142.767 226.827 136.8 229.694 129.4C232.56 121.934 234.494 113.667 235.494 104.6C236.561 95.5335 237.094 86.4335 237.094 77.3002C237.094 68.2335 236.494 59.2002 235.294 50.2001C234.094 41.1335 231.96 32.9002 228.894 25.5002C225.894 18.0335 221.727 12.0668 216.394 7.60014C211.127 3.06681 204.394 0.800156 196.194 0.800156C187.994 0.800156 181.227 3.06681 175.894 7.60014C170.561 12.0668 166.36 18.0335 163.294 25.5002C160.294 32.9002 158.16 41.1335 156.894 50.2001C155.694 59.2002 155.094 68.2335 155.094 77.3002C155.094 86.4335 155.627 95.5335 156.694 104.6C157.76 113.667 159.727 121.934 162.594 129.4C165.46 136.8 169.594 142.767 174.994 147.3C180.461 151.767 187.527 154 196.194 154Z" fill="#EDEDE5"/>
<path d="M392.094 2.19995V2.59996H372.294V106.2C372.294 122.667 368.861 134.967 361.994 143.1C355.127 151.167 343.794 155.2 327.994 155.2C310.727 155.2 298.061 151.367 289.994 143.7C281.994 135.967 277.994 123.467 277.994 106.2V2.59996H260.094V2.19995H317.094V2.59996H297.094V104.2C297.094 110.8 297.561 117.1 298.494 123.1C299.494 129.1 301.227 134.433 303.694 139.1C306.227 143.767 309.761 147.467 314.294 150.2C318.894 152.867 324.794 154.2 331.994 154.2C340.927 154.2 348.327 152.467 354.194 149C360.127 145.467 364.561 140.167 367.494 133.1C370.427 125.967 371.894 117 371.894 106.2V2.59996H352.994V2.19995H392.094Z" fill="#EDEDE5"/>
<path d="M336.563 255.4C336.563 250.933 335.563 247.067 333.563 243.8C331.563 240.533 328.896 238.033 325.563 236.3C322.296 234.5 318.763 233.6 314.963 233.6H302.963V233.2H314.963C318.763 233.2 322.296 232.4 325.563 230.8C328.896 229.2 331.563 226.867 333.563 223.8C335.563 220.667 336.563 216.867 336.563 212.4H336.963V255.4H336.563Z" fill="#EDEDE5"/>
<path d="M186.594 310.6V161.4H166.494C160.627 161.4 155.794 162.533 151.994 164.8C148.194 167 145.194 170.133 142.994 174.2C140.794 178.2 139.227 182.933 138.294 188.4C137.427 193.8 136.994 199.667 136.994 206H136.594V161H255.594V206H255.094C255.094 199.667 254.627 193.8 253.694 188.4C252.827 182.933 251.294 178.2 249.094 174.2C246.894 170.133 243.86 167 239.994 164.8C236.194 162.533 231.36 161.4 225.494 161.4H205.594L206.998 310.6L246.998 312.5V314H144.998V312.5L186.594 310.6Z" fill="#EDEDE5"/>
<path fill-rule="evenodd" clip-rule="evenodd" d="M102.314 166.1C94.6475 162.7 84.7808 161 72.7142 161H13.8141V161.4H31.7141C48.8263 582.26 20.2972 630.859 0.313965 642.42H392.094C392.094 642.42 377.722 575.236 372.449 432.5V270.369C372.093 277.103 370.897 283.246 368.863 288.8C366.396 295.533 362.396 300.867 356.863 304.8C351.396 308.667 344.096 310.6 334.963 310.6H302.963V233.6V233.2V161.4H336.963C344.763 161.4 351.129 163.3 356.063 167.1C361.063 170.9 364.729 175.9 367.063 182.1C369.396 188.233 370.563 194.867 370.563 202H370.863V161H265.963V161.4H283.863L280.5 310.6H265.963C265.963 310.6 266.938 307.749 265.963 314C265.963 349 270.788 626 163.294 626C55.8 626 52.8964 409.196 50.8141 243.2H72.7142C84.7808 243.2 94.6475 241.667 102.314 238.6C109.981 235.467 115.647 230.933 119.314 225C122.981 219 124.814 211.667 124.814 203C124.814 194.333 122.981 186.867 119.314 180.6C115.647 174.333 109.981 169.5 102.314 166.1ZM72.7142 242.8H50.8141V161.4H72.7142C77.5142 161.4 81.7808 162.7 85.5142 165.3C89.2475 167.9 92.3808 171.3 94.9142 175.5C97.4475 179.7 99.3808 184.233 100.714 189.1C102.048 193.9 102.714 198.533 102.714 203C102.714 207.467 102.048 212.033 100.714 216.7C99.3808 221.3 97.4475 225.6 94.9142 229.6C92.3808 233.533 89.2475 236.733 85.5142 239.2C81.7808 241.6 77.5142 242.8 72.7142 242.8Z" fill="#EDEDE5"/>
</svg>
