<svg width="391" height="656" viewBox="0 0 391 656" fill="none" xmlns="http://www.w3.org/2000/svg">
<path d="M68.3141 154.5C54.7808 154.5 42.9141 151.2 32.7141 144.6C22.5141 137.933 14.5474 128.8 8.81409 117.2C3.14742 105.6 0.314087 92.3667 0.314087 77.5C0.314087 62.6333 3.14742 49.4 8.81409 37.8C14.5474 26.2 22.5141 17.1 32.7141 10.5C42.9141 3.83333 54.7808 0.5 68.3141 0.5C75.0474 0.5 81.3808 1.70001 87.3141 4.10001C93.3141 6.50001 98.4808 9.83334 102.814 14.1L114.914 2.5H115.314V43.5H114.914C114.914 35.3667 112.781 28.1333 108.514 21.8C104.247 15.4667 98.7141 10.5 91.9141 6.89999C85.1141 3.29999 77.9141 1.5 70.3141 1.5C61.6474 1.5 54.2807 3.73333 48.2141 8.2C42.2141 12.6 37.3807 18.5 33.7141 25.9C30.1141 33.2333 27.4808 41.4 25.8141 50.4C24.1474 59.3333 23.3141 68.3667 23.3141 77.5C23.3141 86.5667 24.1474 95.6 25.8141 104.6C27.4808 113.6 30.1141 121.8 33.7141 129.2C37.3807 136.533 42.2141 142.433 48.2141 146.9C54.2807 151.3 61.6474 153.5 70.3141 153.5C77.2474 153.5 83.5474 152.4 89.2141 150.2C94.9474 147.933 99.8808 144.833 104.014 140.9C108.147 136.967 111.314 132.5 113.514 127.5C115.781 122.433 116.914 117.1 116.914 111.5H117.314V152.5H116.914L105.814 140C101.481 144.467 96.0808 148 89.6141 150.6C83.2141 153.2 76.1141 154.5 68.3141 154.5Z" fill="#EDEDE5"/>
<path d="M194.194 154.9C184.061 154.9 175.027 152.933 167.094 149C159.161 145 152.427 139.467 146.894 132.4C141.427 125.333 137.261 117.167 134.394 107.9C131.527 98.5667 130.094 88.5667 130.094 77.9C130.094 67.2334 131.594 57.2667 134.594 48C137.661 38.6667 141.994 30.4667 147.594 23.4C153.261 16.3334 160.027 10.8334 167.894 6.90002C175.761 2.90002 184.527 0.900024 194.194 0.900024C203.861 0.900024 212.594 2.90002 220.394 6.90002C228.261 10.8334 234.994 16.3334 240.594 23.4C246.261 30.4667 250.594 38.6667 253.594 48C256.594 57.2667 258.094 67.2334 258.094 77.9C258.094 88.5667 256.661 98.5667 253.794 107.9C250.994 117.167 246.861 125.333 241.394 132.4C235.927 139.467 229.227 145 221.294 149C213.361 152.933 204.327 154.9 194.194 154.9ZM194.194 154.5C202.927 154.5 209.961 152.267 215.294 147.8C220.694 143.267 224.827 137.3 227.694 129.9C230.561 122.433 232.494 114.167 233.494 105.1C234.561 96.0334 235.094 86.9334 235.094 77.8C235.094 68.7334 234.494 59.7 233.294 50.7C232.094 41.6334 229.961 33.4 226.894 26C223.894 18.5334 219.727 12.5667 214.394 8.10002C209.127 3.56669 202.394 1.30003 194.194 1.30003C185.994 1.30003 179.227 3.56669 173.894 8.10002C168.561 12.5667 164.361 18.5334 161.294 26C158.294 33.4 156.161 41.6334 154.894 50.7C153.694 59.7 153.094 68.7334 153.094 77.8C153.094 86.9334 153.627 96.0334 154.694 105.1C155.761 114.167 157.727 122.433 160.594 129.9C163.461 137.3 167.594 143.267 172.994 147.8C178.461 152.267 185.527 154.5 194.194 154.5Z" fill="#EDEDE5"/>
<path d="M390.094 6.89998V7.29999H370.294V110.9C370.294 127.367 366.861 139.667 359.994 147.8C353.127 155.867 341.794 159.9 325.994 159.9C308.727 159.9 296.061 156.067 287.994 148.4C279.994 140.667 275.994 128.167 275.994 110.9V7.29999H258.094V6.89998H315.094V7.29999H295.094V108.9C295.094 115.5 295.561 121.8 296.494 127.8C297.494 133.8 299.227 139.133 301.694 143.8C304.227 148.467 307.761 152.167 312.294 154.9C316.894 157.567 322.794 158.9 329.994 158.9C338.927 158.9 346.327 157.167 352.194 153.7C358.127 150.167 362.561 144.867 365.494 137.8C368.427 130.667 369.894 121.7 369.894 110.9V7.29999H350.994V6.89998H390.094Z" fill="#EDEDE5"/>
<path d="M70.7142 175C82.7808 175 92.6475 176.7 100.314 180.1C107.981 183.5 113.648 188.333 117.314 194.6C120.981 200.867 122.814 208.333 122.814 217C122.814 225.667 120.981 233 117.314 239C113.648 244.933 107.981 249.467 100.314 252.6C92.6475 255.667 82.7808 257.2 70.7142 257.2H48.8142V325H76.0001V414V656H11.8142V325L29.7142 324.6V175.4H11.8142V175H70.7142ZM48.8142 256.8H70.7142C75.5142 256.8 79.7808 255.6 83.5142 253.2C87.2475 250.733 90.3808 247.533 92.9142 243.6C95.4475 239.6 97.3808 235.3 98.7142 230.7C100.048 226.033 100.714 221.467 100.714 217C100.714 212.533 100.048 207.9 98.7142 203.1C97.3808 198.233 95.4475 193.7 92.9142 189.5C90.3808 185.3 87.2475 181.9 83.5142 179.3C79.7808 176.7 75.5142 175.4 70.7142 175.4H48.8142V256.8Z" fill="#EDEDE5"/>
<path d="M165.595 414C165.595 395 165.595 325 165.595 325L187.595 324.6V175.4H167.495C161.629 175.4 156.795 176.533 152.995 178.8C149.195 181 146.195 184.133 143.995 188.2C141.795 192.2 140.229 196.933 139.295 202.4C138.429 207.8 137.995 213.667 137.995 220H137.595V175H256.595V220H256.095C256.095 213.667 255.629 207.8 254.695 202.4C253.829 196.933 252.295 192.2 250.095 188.2C247.895 184.133 244.862 181 240.995 178.8C237.195 176.533 232.362 175.4 226.495 175.4H206.595V324.6L229.392 325V656H165.595C165.595 656 165.595 480.389 165.595 414Z" fill="#EDEDE5"/>
<path d="M263.963 656V324.6L281.863 325V175.4H263.963V175H368.863V216H368.563C368.563 208.867 367.396 202.233 365.063 196.1C362.729 189.9 359.063 184.9 354.063 181.1C349.129 177.3 342.763 175.4 334.963 175.4H300.963V324.6H332.963C342.096 324.6 349.396 322.667 354.863 318.8C360.396 314.867 364.396 309.533 366.863 302.8C369.329 296.067 370.563 288.466 370.563 280H370.963V656H263.963ZM334.563 269.4C334.563 264.933 333.563 261.067 331.563 257.8C329.563 254.533 326.896 252.033 323.563 250.3C320.296 248.5 316.763 247.6 312.963 247.6H292.963V247.2H312.963C316.763 247.2 320.296 246.4 323.563 244.8C326.896 243.2 329.563 240.867 331.563 237.8C333.563 234.667 334.563 230.867 334.563 226.4H334.963V269.4H334.563Z" fill="#EDEDE5"/>
</svg>
