<svg width="391" height="521" viewBox="0 0 391 521" fill="none" xmlns="http://www.w3.org/2000/svg">
<path d="M68.314 154.5C54.7806 154.5 42.914 151.2 32.714 144.6C22.514 137.933 14.5473 128.8 8.81396 117.2C3.1473 105.6 0.313965 92.3667 0.313965 77.5C0.313965 62.6333 3.1473 49.4 8.81396 37.8C14.5473 26.2 22.514 17.1 32.714 10.5C42.914 3.83333 54.7806 0.5 68.314 0.5C75.0473 0.5 81.3806 1.70001 87.314 4.10001C93.314 6.50001 98.4806 9.83334 102.814 14.1L114.914 2.5H115.314V43.5H114.914C114.914 35.3667 112.781 28.1333 108.514 21.8C104.247 15.4667 98.714 10.5 91.914 6.89999C85.114 3.29999 77.914 1.5 70.314 1.5C61.6473 1.5 54.2806 3.73333 48.214 8.2C42.214 12.6 37.3806 18.5 33.714 25.9C30.114 33.2333 27.4806 41.4 25.814 50.4C24.1473 59.3333 23.314 68.3667 23.314 77.5C23.314 86.5667 24.1473 95.6 25.814 104.6C27.4806 113.6 30.114 121.8 33.714 129.2C37.3806 136.533 42.214 142.433 48.214 146.9C54.2806 151.3 61.6473 153.5 70.314 153.5C77.2473 153.5 83.5473 152.4 89.214 150.2C94.9473 147.933 99.8806 144.833 104.014 140.9C108.147 136.967 111.314 132.5 113.514 127.5C115.781 122.433 116.914 117.1 116.914 111.5H117.314V152.5H116.914L105.814 140C101.481 144.467 96.0806 148 89.614 150.6C83.214 153.2 76.114 154.5 68.314 154.5Z" fill="#EDEDE5"/>
<path d="M194.194 154.9C184.06 154.9 175.027 152.933 167.094 149C159.16 145 152.427 139.467 146.894 132.4C141.427 125.333 137.26 117.167 134.394 107.9C131.527 98.5667 130.094 88.5667 130.094 77.9C130.094 67.2334 131.594 57.2667 134.594 48C137.66 38.6667 141.994 30.4667 147.594 23.4C153.26 16.3334 160.027 10.8334 167.894 6.90002C175.76 2.90002 184.527 0.900024 194.194 0.900024C203.86 0.900024 212.594 2.90002 220.394 6.90002C228.26 10.8334 234.994 16.3334 240.594 23.4C246.26 30.4667 250.594 38.6667 253.594 48C256.594 57.2667 258.094 67.2334 258.094 77.9C258.094 88.5667 256.66 98.5667 253.794 107.9C250.994 117.167 246.86 125.333 241.394 132.4C235.927 139.467 229.227 145 221.294 149C213.36 152.933 204.327 154.9 194.194 154.9ZM194.194 154.5C202.927 154.5 209.96 152.267 215.294 147.8C220.694 143.267 224.827 137.3 227.694 129.9C230.56 122.433 232.494 114.167 233.494 105.1C234.56 96.0334 235.094 86.9334 235.094 77.8C235.094 68.7334 234.494 59.7 233.294 50.7C232.094 41.6334 229.96 33.4 226.894 26C223.894 18.5334 219.727 12.5667 214.394 8.10002C209.127 3.56669 202.394 1.30003 194.194 1.30003C185.994 1.30003 179.227 3.56669 173.894 8.10002C168.56 12.5667 164.36 18.5334 161.294 26C158.294 33.4 156.16 41.6334 154.894 50.7C153.694 59.7 153.094 68.7334 153.094 77.8C153.094 86.9334 153.627 96.0334 154.694 105.1C155.76 114.167 157.727 122.433 160.594 129.9C163.46 137.3 167.594 143.267 172.994 147.8C178.46 152.267 185.527 154.5 194.194 154.5Z" fill="#EDEDE5"/>
<path d="M390.094 6.89998V7.29999H370.294V110.9C370.294 127.367 366.86 139.667 359.994 147.8C353.127 155.867 341.794 159.9 325.994 159.9C308.727 159.9 296.06 156.067 287.994 148.4C279.994 140.667 275.994 128.167 275.994 110.9V7.29999H258.094V6.89998H315.094V7.29999H295.094V108.9C295.094 115.5 295.56 121.8 296.494 127.8C297.494 133.8 299.227 139.133 301.694 143.8C304.227 148.467 307.76 152.167 312.294 154.9C316.894 157.567 322.794 158.9 329.994 158.9C338.927 158.9 346.327 157.167 352.194 153.7C358.127 150.167 362.56 144.867 365.494 137.8C368.427 130.667 369.894 121.7 369.894 110.9V7.29999H350.994V6.89998H390.094Z" fill="#EDEDE5"/>
<path d="M263.962 325.5V324.6H281.862V175.4H263.962V175H368.863V216H368.562C368.562 208.867 367.396 202.233 365.062 196.1C362.729 189.9 359.062 184.9 354.062 181.1C349.129 177.3 342.762 175.4 334.962 175.4H300.962V324.6H332.962C342.096 324.6 349.396 322.667 354.863 318.8C360.396 314.867 364.396 309.533 366.863 302.8C369.329 296.067 370.562 288.466 370.562 280H370.962V325.5H263.962ZM334.562 269.4C334.562 264.933 333.562 261.067 331.562 257.8C329.562 254.533 326.896 252.033 323.562 250.3C320.296 248.5 316.762 247.6 312.962 247.6H292.962V247.2H312.962C316.762 247.2 320.296 246.4 323.562 244.8C326.896 243.2 329.562 240.867 331.562 237.8C333.562 234.667 334.562 230.867 334.562 226.4H334.962V269.4H334.562Z" fill="#EDEDE5"/>
<path fill-rule="evenodd" clip-rule="evenodd" d="M70.7141 175C82.7807 175 92.6474 176.7 100.314 180.1C107.981 183.5 113.647 188.333 117.314 194.6C120.981 200.867 122.814 208.333 122.814 217C122.814 225.667 120.981 233 117.314 239C113.647 244.933 107.981 249.467 100.314 252.6C92.6474 255.667 82.7807 257.2 70.7141 257.2H48.814V324.6L76 325V325.5H11.814V325L29.714 324.6V175.4H11.814V175H70.7141ZM70.7141 256.8H48.814V175.4H70.7141C75.514 175.4 79.7807 176.7 83.5141 179.3C87.2474 181.9 90.3807 185.3 92.914 189.5C95.4474 193.7 97.3807 198.233 98.7141 203.1C100.047 207.9 100.714 212.533 100.714 217C100.714 221.467 100.047 226.033 98.7141 230.7C97.3807 235.3 95.4474 239.6 92.914 243.6C90.3807 247.533 87.2474 250.733 83.5141 253.2C79.7807 255.6 75.514 256.8 70.7141 256.8Z" fill="#EDEDE5"/>
<path d="M165.595 325L187.595 324.6V175.4H167.495C161.629 175.4 156.795 176.533 152.995 178.8C149.195 181 146.195 184.133 143.995 188.2C141.795 192.2 140.229 196.933 139.295 202.4C138.429 207.8 137.995 213.667 137.995 220H137.595V175H256.595V220H256.095C256.095 213.667 255.629 207.8 254.695 202.4C253.829 196.933 252.295 192.2 250.095 188.2C247.895 184.133 244.862 181 240.995 178.8C237.195 176.533 232.362 175.4 226.495 175.4H206.595V324.6L229.391 325V325.5C229.391 325.5 229.391 340.5 229.391 384.5C229.391 404.602 225.962 440.988 263.962 467.5C301.962 494.012 390.094 520.5 390.094 520.5H0.313965C0.313965 520.5 108.108 486.5 135 467.5C161.892 448.5 165.595 402.435 165.595 384.5C165.595 341 165.595 325.5 165.595 325.5V325Z" fill="#EDEDE5"/>
</svg>
