<svg width="407" height="641" viewBox="0 0 407 641" fill="none" xmlns="http://www.w3.org/2000/svg">
<path d="M68.6086 154C55.0752 154 43.2086 150.7 33.0086 144.1C22.8086 137.433 14.8419 128.3 9.10858 116.7C3.44192 105.1 0.608582 91.8667 0.608582 77C0.608582 62.1333 3.44192 48.9 9.10858 37.3C14.8419 25.7 22.8086 16.6 33.0086 10C43.2086 3.33333 55.0752 0 68.6086 0C75.3419 0 81.6753 1.2 87.6086 3.6C93.6086 6 98.7753 9.33334 103.109 13.6L115.209 2H115.609V43H115.209C115.209 34.8667 113.075 27.6333 108.809 21.3C104.542 14.9667 99.0086 10 92.2086 6.4C85.4086 2.8 78.2086 0.999999 70.6086 0.999999C61.9419 0.999999 54.5753 3.23333 48.5086 7.7C42.5086 12.1 37.6753 18 34.0086 25.4C30.4086 32.7333 27.7752 40.9 26.1086 49.9C24.4419 58.8333 23.6086 67.8667 23.6086 77C23.6086 86.0667 24.4419 95.1 26.1086 104.1C27.7752 113.1 30.4086 121.3 34.0086 128.7C37.6753 136.033 42.5086 141.933 48.5086 146.4C54.5753 150.8 61.9419 153 70.6086 153C77.5419 153 83.8419 151.9 89.5086 149.7C95.2419 147.433 100.175 144.333 104.309 140.4C108.442 136.467 111.609 132 113.809 127C116.075 121.933 117.209 116.6 117.209 111H117.609V152H117.209L106.109 139.5C101.775 143.967 96.3753 147.5 89.9086 150.1C83.5086 152.7 76.4086 154 68.6086 154Z" fill="white"/>
<path d="M198.302 154C188.169 154 179.136 152.033 171.202 148.1C163.269 144.1 156.536 138.567 151.002 131.5C145.536 124.433 141.369 116.267 138.502 107C135.636 97.6667 134.202 87.6667 134.202 77C134.202 66.3333 135.702 56.3667 138.702 47.1C141.769 37.7667 146.102 29.5667 151.702 22.5C157.369 15.4333 164.136 9.93334 172.002 6.00001C179.869 2 188.636 0 198.302 0C207.969 0 216.702 2 224.502 6.00001C232.369 9.93334 239.102 15.4333 244.702 22.5C250.369 29.5667 254.702 37.7667 257.702 47.1C260.702 56.3667 262.202 66.3333 262.202 77C262.202 87.6667 260.769 97.6667 257.902 107C255.102 116.267 250.969 124.433 245.502 131.5C240.036 138.567 233.336 144.1 225.402 148.1C217.469 152.033 208.436 154 198.302 154ZM198.302 153.6C207.036 153.6 214.069 151.367 219.402 146.9C224.802 142.367 228.936 136.4 231.802 129C234.669 121.533 236.602 113.267 237.602 104.2C238.669 95.1333 239.202 86.0333 239.202 76.9C239.202 67.8333 238.602 58.8 237.402 49.8C236.202 40.7333 234.069 32.5 231.002 25.1C228.002 17.6333 223.836 11.6667 218.502 7.2C213.236 2.66667 206.502 0.400007 198.302 0.400007C190.102 0.400007 183.336 2.66667 178.002 7.2C172.669 11.6667 168.469 17.6333 165.402 25.1C162.402 32.5 160.269 40.7333 159.002 49.8C157.802 58.8 157.202 67.8333 157.202 76.9C157.202 86.0333 157.736 95.1333 158.802 104.2C159.869 113.267 161.836 121.533 164.702 129C167.569 136.4 171.702 142.367 177.102 146.9C182.569 151.367 189.636 153.6 198.302 153.6Z" fill="white"/>
<path d="M406.134 2V2.4H386.334V106C386.334 122.467 382.9 134.767 376.034 142.9C369.167 150.967 357.834 155 342.034 155C324.767 155 312.1 151.167 304.034 143.5C296.034 135.767 292.034 123.267 292.034 106V2.4H274.134V2H331.134V2.4H311.134V104C311.134 110.6 311.6 116.9 312.534 122.9C313.534 128.9 315.267 134.233 317.734 138.9C320.267 143.567 323.8 147.267 328.334 150C332.934 152.667 338.834 154 346.034 154C354.967 154 362.367 152.267 368.234 148.8C374.167 145.267 378.6 139.967 381.534 132.9C384.467 125.767 385.934 116.8 385.934 106V2.4H367.034V2H406.134Z" fill="white"/>
<path d="M79.3226 307C91.3893 307 101.256 308.7 108.923 312.1C116.589 315.5 122.256 320.333 125.923 326.6C129.589 332.867 131.423 340.333 131.423 349C131.423 357.667 129.589 365 125.923 371C122.256 376.933 116.589 381.467 108.923 384.6C101.256 387.667 91.3893 389.2 79.3226 389.2H57.4226V456.6H75.3226V457H20.4226V456.6H38.3226V307.4H20.4226V307H79.3226ZM57.4226 388.8H79.3226C84.1226 388.8 88.3893 387.6 92.1226 385.2C95.856 382.733 98.9893 379.533 101.523 375.6C104.056 371.6 105.989 367.3 107.323 362.7C108.656 358.033 109.323 353.467 109.323 349C109.323 344.533 108.656 339.9 107.323 335.1C105.989 330.233 104.056 325.7 101.523 321.5C98.9893 317.3 95.856 313.9 92.1226 311.3C88.3893 308.7 84.1226 307.4 79.3226 307.4H57.4226V388.8Z" fill="white"/>
<path d="M174.204 457V456.6H196.204V307.4H176.104C170.237 307.4 165.404 308.533 161.604 310.8C157.804 313 154.804 316.133 152.604 320.2C150.404 324.2 148.837 328.933 147.904 334.4C147.037 339.8 146.604 345.667 146.604 352H146.204V307H265.204V352H264.704C264.704 345.667 264.237 339.8 263.304 334.4C262.437 328.933 260.904 324.2 258.704 320.2C256.504 316.133 253.471 313 249.604 310.8C245.804 308.533 240.971 307.4 235.104 307.4H215.204V456.6H237.204V457H174.204Z" fill="white"/>
<path d="M272.571 457V456.6H290.471V307.4H272.571V307H377.471V348H377.171C377.171 340.867 376.004 334.233 373.671 328.1C371.338 321.9 367.671 316.9 362.671 313.1C357.738 309.3 351.371 307.4 343.571 307.4H309.571V456.6H341.571C350.704 456.6 358.004 454.667 363.471 450.8C369.004 446.867 373.004 441.533 375.471 434.8C377.938 428.067 379.171 420.467 379.171 412H379.571V457H272.571ZM343.171 401.4C343.171 396.933 342.171 393.067 340.171 389.8C338.171 386.533 335.504 384.033 332.171 382.3C328.904 380.5 325.371 379.6 321.571 379.6H301.571V379.2H321.571C325.371 379.2 328.904 378.4 332.171 376.8C335.504 375.2 338.171 372.867 340.171 369.8C342.171 366.667 343.171 362.867 343.171 358.4H343.571V401.4H343.171Z" fill="white"/>
<path d="M21 457H76V641H21V457Z" fill="white"/>
<path d="M175 457H238V641H175V457Z" fill="white"/>
<path d="M273 457H380V641H273V457Z" fill="white"/>
</svg>
